<svg xmlns="http://www.w3.org/2000/svg">

	<defs></defs>

	<symbol id="ui__card-atm" viewBox="0 0 80 80">
		<path d="M68 10H12A12 12 0 0 0 0 22v36a12 12 0 0 0 12 12h56a12 12 0 0 0 12-12V22a12 12 0 0 0-12-12Zm4 48a4 4 0 0 1-4 4H12a4 4 0 0 1-4-4V22a4 4 0 0 1 4-4h56a4 4 0 0 1 4 4ZM56 34a12 12 0 0 0-6 1.68 12 12 0 1 0 0 20.64A12 12 0 1 0 56 34ZM44.68 50a4 4 0 1 1 0-8 11.2 11.2 0 0 0 0 7.68ZM56 50a4 4 0 1 1 4-4 4 4 0 0 1-4 4Z"/>
	</symbol>

	<symbol id="ui__search" viewBox="0 0 80 80">
		<path d="M78.94 73.26 64.09 58.53a36 36 0 1 0-5.56 5.56l14.73 14.73a4 4 0 0 0 5.66 0 4.17 4.17 0 0 0 .02-5.56Zm-42.85-9.17a28 28 0 1 1 28-28 28 28 0 0 1-28 28Z"/>
	</symbol>

	<symbol id="ui__chart" viewBox="0 0 80 80">
		<path d="M40 16a4 4 0 0 0-4 4v40a4 4 0 0 0 8 0V20a4 4 0 0 0-4-4ZM20 40a4 4 0 0 0-4 4v16a4 4 0 0 0 8 0V44a4 4 0 0 0-4-4Zm40-8a4 4 0 0 0-4 4v24a4 4 0 0 0 8 0V36a4 4 0 0 0-4-4Zm8-32H12A12 12 0 0 0 0 12v56a12 12 0 0 0 12 12h56a12 12 0 0 0 12-12V12A12 12 0 0 0 68 0Zm4 68a4 4 0 0 1-4 4H12a4 4 0 0 1-4-4V12a4 4 0 0 1 4-4h56a4 4 0 0 1 4 4Z"/>
	</symbol>

	<symbol id="ui__apps" viewBox="0 0 80 80">
		<path d="M32 44H4a4 4 0 0 0-4 4v28a4 4 0 0 0 4 4h28a4 4 0 0 0 4-4V48a4 4 0 0 0-4-4Zm-4 28H8V52h20ZM76 0H48a4 4 0 0 0-4 4v28a4 4 0 0 0 4 4h28a4 4 0 0 0 4-4V4a4 4 0 0 0-4-4Zm-4 28H52V8h20Zm4 16H48a4 4 0 0 0-4 4v28a4 4 0 0 0 4 4h28a4 4 0 0 0 4-4V48a4 4 0 0 0-4-4Zm-4 28H52V52h20ZM32 0H4a4 4 0 0 0-4 4v28a4 4 0 0 0 4 4h28a4 4 0 0 0 4-4V4a4 4 0 0 0-4-4Zm-4 28H8V8h20Z"/>
	</symbol>

	<symbol id="ui__book-open" viewBox="0 0 80 80">
		<path d="M76.27.75A51.82 51.82 0 0 0 67.69 0 51.18 51.18 0 0 0 40 8.11 51.18 51.18 0 0 0 12.31.2a51.82 51.82 0 0 0-8.58.75 4 4 0 0 0-3.28 4v47.42a4 4 0 0 0 4.63 4 43.11 43.11 0 0 1 32.63 7.55l.47.28h.44a3.6 3.6 0 0 0 2.77 0h.44l.47-.28a43.11 43.11 0 0 1 32.63-8 4 4 0 0 0 4.63-4V4.47A4 4 0 0 0 76.27.75ZM36 53.32a50.91 50.91 0 0 0-23.73-5.85h-4V7.91a34.37 34.37 0 0 1 4 0A43 43 0 0 1 36 15Zm35.6-5.7h-4A50.91 50.91 0 0 0 44 53.48V15a43 43 0 0 1 23.69-7.09 34.37 34.37 0 0 1 4 0ZM76.27 64a51.82 51.82 0 0 0-8.58-.75A51.18 51.18 0 0 0 40 71.4a51.18 51.18 0 0 0-27.69-8.11 51.82 51.82 0 0 0-8.58.71 4 4 0 0 0-3.29 4.56 4 4 0 0 0 4.63 3.12 43.11 43.11 0 0 1 32.63 7.55 4 4 0 0 0 4.59 0 43.11 43.11 0 0 1 32.63-7.55A3.9 3.9 0 1 0 76.29 64Z"/>
	</symbol>

	<symbol id="ui__money-bill" viewBox="0 0 80 80">
		<path d="M18.18 36.36A3.64 3.64 0 1 0 21.82 40a3.64 3.64 0 0 0-3.64-3.64Zm43.64 0A3.64 3.64 0 1 0 65.45 40a3.64 3.64 0 0 0-3.63-3.64Zm7.27-21.82H10.91A10.91 10.91 0 0 0 0 25.45v29.1a10.91 10.91 0 0 0 10.91 10.9h58.18A10.91 10.91 0 0 0 80 54.55v-29.1a10.91 10.91 0 0 0-10.91-10.9Zm3.64 40a3.64 3.64 0 0 1-3.64 3.64H10.91a3.64 3.64 0 0 1-3.64-3.64V25.45a3.64 3.64 0 0 1 3.64-3.64h58.18a3.64 3.64 0 0 1 3.64 3.64ZM40 29.09A10.91 10.91 0 1 0 50.91 40 10.91 10.91 0 0 0 40 29.09Zm0 14.55A3.64 3.64 0 1 1 43.64 40 3.64 3.64 0 0 1 40 43.64Z"/>
	</symbol>

	<symbol id="ui__bookmark" viewBox="0 0 80 80">
		<path d="M56 0H24a12 12 0 0 0-12 12v64a4 4 0 0 0 6 3.48l22-12.73 22 12.71A4 4 0 0 0 68 76V12A12 12 0 0 0 56 0Zm4 69.07-18-10.4a4 4 0 0 0-4 0l-18 10.4V12a4 4 0 0 1 4-4h32a4 4 0 0 1 4 4Z"/>
	</symbol>

	<symbol id="ui__bell" viewBox="0 0 80 80">
		<path d="M64.06 44.83V32.08A24.06 24.06 0 0 0 44 8.38V4a4 4 0 1 0-8 0v4.38a24.06 24.06 0 0 0-20 23.7v12.75a12 12 0 0 0-8 11.31v8a4 4 0 0 0 4 4h12.52a16 16 0 0 0 31 0h12.55a4 4 0 0 0 4-4v-8a12 12 0 0 0-8.01-11.31ZM24 32.08a16 16 0 1 1 32.08 0v12H24Zm16 40.1a8 8 0 0 1-6.9-4h13.8a8 8 0 0 1-6.9 3.99Zm24.06-12H15.94v-4a4 4 0 0 1 4-4H60a4 4 0 0 1 4 4Z"/>
	</symbol>

	<symbol id="ui__moon" viewBox="0 0 80 80">
		<path d="M78.43 43.9a4 4 0 0 0-4.2-.56 32.17 32.17 0 0 1-13.47 2.92 32.57 32.57 0 0 1-32.53-32.37 34.33 34.33 0 0 1 1-8 4 4 0 0 0-5.32-4.52 40.53 40.53 0 1 0 56 46.72 4 4 0 0 0-1.48-4.19Zm-38 26.74a32.53 32.53 0 0 1-20.19-57.83v1.08a40.57 40.57 0 0 0 40.52 40.52 39.13 39.13 0 0 0 8.39-.88A32.41 32.41 0 0 1 40.46 70.8Z"/>
	</symbol>

	<symbol id="ui__sun" viewBox="0 0 80 80">
		<path d="m14.56 60-2.84 2.84a4 4 0 1 0 5.64 5.64l2.84-2.84A4 4 0 0 0 14.56 60ZM12 40a4 4 0 0 0-4-4H4a4 4 0 0 0 0 8h4a4 4 0 0 0 4-4Zm28-28a4 4 0 0 0 4-4V4a4 4 0 0 0-8 0v4a4 4 0 0 0 4 4Zm-25.44 8.2a4 4 0 1 0 5.64-5.64l-2.84-2.84a4 4 0 0 0-5.64 5.64Zm48 1.16a4 4 0 0 0 2.8-1.16l2.84-2.84a4 4 0 1 0-5.64-5.64L60 14.56a4 4 0 0 0 2.64 6.8ZM76 36h-4a4 4 0 0 0 0 8h4a4 4 0 0 0 0-8ZM40 68a4 4 0 0 0-4 4v4a4 4 0 0 0 8 0v-4a4 4 0 0 0-4-4Zm25.44-8A4 4 0 0 0 60 65.44l2.84 2.84a4 4 0 0 0 5.64-5.64ZM40 18a22 22 0 1 0 22 22 22 22 0 0 0-22-22Zm0 36a14 14 0 1 1 14-14 14 14 0 0 1-14 14Z"/>
	</symbol>

	<symbol id="ui__sign-out" viewBox="0 0 80 80">
		<path d="m42.36 44-9.2 9.16a4 4 0 0 0 0 5.66 4 4 0 0 0 5.66 0l16-16a4.13 4.13 0 0 0 0-5.68l-16-16a4 4 0 1 0-5.68 5.68L42.36 36H4a4 4 0 0 0 0 8ZM40 0A40 40 0 0 0 4 22.2a4 4 0 1 0 7.2 3.6 32.16 32.16 0 1 1 .16 28.4 4 4 0 1 0-7.2 3.6A40 40 0 1 0 40 0Z"/>
	</symbol>

	<symbol id="ui__times-circle" viewBox="0 0 80 80">
		<path d="M54.66 25.34a4 4 0 0 0-5.59 0l-9 9.09-9-9.09A4 4 0 0 0 25.34 31l9.09 9-9.09 9a4 4 0 0 0 0 5.59 4 4 0 0 0 5.59 0l9-9.09 9 9.09a4 4 0 0 0 5.59 0 4 4 0 0 0 0-5.59l-9.09-9 9.09-9a4 4 0 0 0 0-5.59Zm13.28-13.28A39.51 39.51 0 0 0 11.09 67q.48.49 1 1a39.51 39.51 0 0 0 56.82-55q-.48-.46-.97-.94Zm-5.57 50.3A31.61 31.61 0 1 1 71.61 40a31.61 31.61 0 0 1-9.24 22.37Z"/>
	</symbol>

</svg>